<?xml version="1.0" encoding="utf-8"?>
<!-- Generator: Adobe Illustrator 19.1.1, SVG Export Plug-In . SVG Version: 6.00 Build 0)  -->
<svg version="1.1" id="Layer_1" xmlns="http://www.w3.org/2000/svg" xmlns:xlink="http://www.w3.org/1999/xlink" x="0px" y="0px"
	 viewBox="0 0 18 18" style="enable-background:new 0 0 18 18;" xml:space="preserve">
<style type="text/css">
	.st0{fill:none;stroke:#7D7D7D;stroke-miterlimit:10;}
	.st1{fill:#7D7D7D;}
</style>
<path class="st0" d="M16,17H2c-0.6,0-1-0.4-1-1V2c0-0.6,0.4-1,1-1h14c0.6,0,1,0.4,1,1v14C17,16.6,16.6,17,16,17z"/>
<path class="st1" d="M13,15H5c-1.1,0-2-0.9-2-2V5c0-1.1,0.9-2,2-2h8c1.1,0,2,0.9,2,2v8C15,14.1,14.1,15,13,15z"/>
</svg>
